<svg id="Capa_1" enable-background="new 0 0 512 512" height="512" viewBox="0 0 512 512" width="512" xmlns="http://www.w3.org/2000/svg"><g><g><path d="m23.532 159.806v248.5c0 4.427 3.589 8.016 8.016 8.016h448.903c4.427 0 8.016-3.589 8.016-8.016v-248.5z" fill="#95d6a4"/><path d="m71.629 199.887h416.839v-40.081h-464.936v248.5c0 4.427 3.589 8.016 8.016 8.016h16.032v-192.387c.001-13.281 10.767-24.048 24.049-24.048z" fill="#78c2a4"/><path d="m496.484 95.677h-480.968c-4.427 0-8.016 3.589-8.016 8.016v66.307h497v-66.306c0-4.428-3.589-8.017-8.016-8.017z" fill="#b3e59f"/><path d="m47.581 151.79c-8.854 0-16.032-7.178-16.032-16.032v-40.081h-16.033c-4.427 0-8.016 3.589-8.016 8.016v72.145h497v-24.048z" fill="#95d6a4"/><path d="m223.935 95.677v120.242l32.065-16.032 32.065 16.032v-120.242z" fill="#d19a6e"/></g><g><path d="m496.484 88.177h-480.968c-8.556 0-15.516 6.961-15.516 15.516v72.146c0 4.142 3.358 7.5 7.5 7.5h8.532v224.968c0 8.556 6.96 15.516 15.516 15.516h448.903c8.556 0 15.516-6.96 15.516-15.516v-224.968h8.532c4.142 0 7.5-3.358 7.5-7.5v-72.146c.001-8.555-6.959-15.516-15.515-15.516zm-265.048 15h49.129v100.607l-21.21-10.605c-2.111-1.056-4.597-1.056-6.708 0l-21.21 10.605v-100.607zm265.564 65.162h-176.873c-4.142 0-7.5 3.358-7.5 7.5s3.358 7.5 7.5 7.5h160.84v224.968c0 .285-.231.516-.516.516h-448.903c-.285 0-.516-.231-.516-.516v-224.968h160.837c4.142 0 7.5-3.358 7.5-7.5s-3.358-7.5-7.5-7.5h-176.869v-64.646c0-.285.231-.516.516-.516h200.919v112.742c0 2.599 1.346 5.013 3.557 6.38s4.972 1.491 7.297.328l28.711-14.355 28.71 14.355c1.059.529 2.208.792 3.354.792 1.372 0 2.739-.376 3.943-1.12 2.211-1.367 3.557-3.781 3.557-6.38v-112.742h200.919c.285 0 .516.231.516.516v64.646z"/><path d="m158.021 251.742h-38.796c-4.142 0-7.5 3.358-7.5 7.5v95.722c0 4.142 3.358 7.5 7.5 7.5s7.5-3.358 7.5-7.5v-41.268h28.215c4.142 0 7.5-3.358 7.5-7.5s-3.358-7.5-7.5-7.5h-28.215v-31.955h31.296c4.142 0 7.5-3.358 7.5-7.5s-3.358-7.499-7.5-7.499z"/><path d="m271.161 259.329v95.547c0 4.142 3.358 7.5 7.5 7.5h40.26c4.142 0 7.5-3.358 7.5-7.5s-3.358-7.5-7.5-7.5h-32.76v-32.773h29.791c4.142 0 7.5-3.358 7.5-7.5s-3.358-7.5-7.5-7.5h-29.791v-32.774h32.76c4.142 0 7.5-3.358 7.5-7.5s-3.358-7.5-7.5-7.5h-40.26c-4.142 0-7.5 3.358-7.5 7.5z"/><path d="m353.231 362.376h40.26c4.142 0 7.5-3.358 7.5-7.5s-3.358-7.5-7.5-7.5h-32.76v-32.773h29.792c4.142 0 7.5-3.358 7.5-7.5s-3.358-7.5-7.5-7.5h-29.792v-32.774h32.76c4.142 0 7.5-3.358 7.5-7.5s-3.358-7.5-7.5-7.5h-40.26c-4.142 0-7.5 3.358-7.5 7.5v95.547c0 4.143 3.358 7.5 7.5 7.5z"/><path d="m253.535 283.949c0-17.954-15.243-32.561-33.979-32.561h-25.624c-.005 0-.01.001-.016.001-.005 0-.01-.001-.016-.001-4.142 0-7.5 3.358-7.5 7.5v96.428c0 4.142 3.358 7.5 7.5 7.5s7.5-3.358 7.5-7.5v-38.736c.179-.001.364-.002.547-.003l38.458 43.695c1.482 1.685 3.552 2.545 5.633 2.545 1.76 0 3.527-.616 4.952-1.87 3.109-2.736 3.412-7.476.675-10.585l-29.864-33.931c17.692-1.113 31.734-15.251 31.734-32.482zm-33.979 17.561c-4.12 0-12.061.038-17.99.069-.032-5.85-.071-13.633-.071-17.629 0-3.377-.022-11.473-.04-17.561h18.101c10.288 0 18.979 8.042 18.979 17.561 0 9.518-8.692 17.56-18.979 17.56z"/></g></g></svg>