<svg id="line" height="512" viewBox="0 0 64 64" width="512" xmlns="http://www.w3.org/2000/svg"><path d="m42 21a21 21 0 1 0 21 21 21.023 21.023 0 0 0 -21-21zm8.019 21.946-13.288 7.247a1 1 0 0 1 -1.479-.878v-14.495a1 1 0 0 1 1.479-.878l13.288 7.248a1 1 0 0 1 0 1.756z" fill="#c4a2fc"/><g fill="#151a6a"><path d="m31.512 1.4-17.812 10.18-9.945.829a3.016 3.016 0 0 0 -2.755 2.991v10.32a3.016 3.016 0 0 0 2.751 2.989l9.927.828 17.743 10.981a3 3 0 0 0 4.579-2.55v-33.968a3 3 0 0 0 -4.488-2.6zm-28.512 24.318v-10.318a1.006 1.006 0 0 1 .917-1l9.083-.755v13.826l-9.083-.757a1.006 1.006 0 0 1 -.917-.996zm31 12.25a1 1 0 0 1 -1.526.85l-17.474-10.818v-14.861l17.5-10a1 1 0 0 1 1.5.861z"/><path d="m39.553 14.644a1 1 0 0 0 -.448 1.342 9.632 9.632 0 0 1 0 9.144 1 1 0 0 0 1.79.895 11.67 11.67 0 0 0 0-10.934 1 1 0 0 0 -1.342-.447z"/><path d="m46.7 11.327a1 1 0 1 0 -1.789.894 17.571 17.571 0 0 1 0 16.674 1 1 0 1 0 1.789.894 19.7 19.7 0 0 0 0-18.462z"/></g></svg>