<svg width="301" height="77" viewBox="0 0 301 77" fill="none" xmlns="http://www.w3.org/2000/svg">
<rect x="95" y="1" width="206" height="76" rx="8" fill="#F80059"/>
<path d="M130.078 38.5234L134.953 27.6953H143.461L133.992 45.4141V55H126.07V45.1328L116.789 27.6953H125.273L130.078 38.5234ZM170.602 41.8281C170.602 44.5 170.047 46.875 168.938 48.9531C167.844 51.0156 166.297 52.6016 164.297 53.7109C162.297 54.8203 160.039 55.375 157.523 55.375C154.961 55.375 152.68 54.8281 150.68 53.7344C148.68 52.6406 147.125 51.0625 146.016 49C144.906 46.9219 144.352 44.5391 144.352 41.8516V40.8906C144.352 38.2188 144.891 35.8516 145.969 33.7891C147.047 31.7266 148.586 30.1328 150.586 29.0078C152.602 27.8828 154.898 27.3203 157.477 27.3203C159.992 27.3203 162.25 27.8828 164.25 29.0078C166.25 30.1172 167.797 31.6875 168.891 33.7188C170 35.7344 170.57 38.0469 170.602 40.6562V41.8281ZM162.633 40.8672C162.633 38.4609 162.18 36.6094 161.273 35.3125C160.367 34 159.102 33.3438 157.477 33.3438C154.039 33.3438 152.32 35.8984 152.32 41.0078V41.8281C152.32 44.1719 152.75 46.0156 153.609 47.3594C154.469 48.7031 155.773 49.375 157.523 49.375C159.086 49.375 160.32 48.7188 161.227 47.4062C162.133 46.0938 162.602 44.2969 162.633 42.0156V40.8672ZM197.344 27.6953V45.1797C197.344 48.3984 196.312 50.9062 194.25 52.7031C192.188 54.4844 189.289 55.375 185.555 55.375C181.883 55.375 178.992 54.4766 176.883 52.6797C174.789 50.8828 173.727 48.4375 173.695 45.3438V27.6953H181.641V45.2031C181.641 46.6719 181.969 47.7266 182.625 48.3672C183.281 48.9922 184.258 49.3047 185.555 49.3047C186.883 49.3047 187.852 48.9922 188.461 48.3672C189.086 47.7266 189.398 46.6719 189.398 45.2031V27.6953H197.344ZM225.258 55H201.445V49.8438L212.414 38.3125C215.117 35.2344 216.469 32.7891 216.469 30.9766C216.469 29.5078 216.148 28.3906 215.508 27.625C214.867 26.8594 213.938 26.4766 212.719 26.4766C211.516 26.4766 210.539 26.9922 209.789 28.0234C209.039 29.0391 208.664 30.3125 208.664 31.8438H200.742C200.742 29.75 201.266 27.8203 202.312 26.0547C203.359 24.2734 204.812 22.8828 206.672 21.8828C208.531 20.8828 210.609 20.3828 212.906 20.3828C216.594 20.3828 219.43 21.2344 221.414 22.9375C223.414 24.6406 224.414 27.0859 224.414 30.2734C224.414 31.6172 224.164 32.9297 223.664 34.2109C223.164 35.4766 222.383 36.8125 221.32 38.2188C220.273 39.6094 218.578 41.4766 216.234 43.8203L211.828 48.9062H225.258V55ZM229.055 55V27.6953H240.023C243.914 27.6953 246.875 28.3438 248.906 29.6406C250.953 30.9219 251.977 32.7969 251.977 35.2656C251.977 38.2812 250.625 40.2891 247.922 41.2891C249.375 41.6484 250.508 42.3594 251.32 43.4219C252.148 44.4688 252.562 45.7188 252.562 47.1719C252.562 49.8125 251.656 51.7734 249.844 53.0547C248.047 54.3203 245.242 54.9688 241.43 55H229.055ZM236.977 43.9844V48.9297H241.148C242.227 48.9297 243.078 48.7188 243.703 48.2969C244.328 47.8594 244.641 47.2734 244.641 46.5391C244.641 44.8984 243.68 44.0469 241.758 43.9844H236.977ZM236.977 38.9922H240.727C241.93 38.9766 242.781 38.7656 243.281 38.3594C243.797 37.9375 244.055 37.3125 244.055 36.4844C244.055 35.5 243.789 34.8047 243.258 34.3984C242.742 33.9922 241.922 33.7891 240.797 33.7891H236.977V38.9922ZM274.57 43.9375H263.836V48.9297H276.562V55H255.914V27.6953H276.68V33.7891H263.836V37.8438H274.57V43.9375Z" fill="#E5E5E5"/>
<path d="M43.2191 33.1816C39.0265 33.1723 34.9823 34.732 31.8816 37.5537C32.29 38.0122 32.5201 38.6022 32.5299 39.2161C32.5299 39.5581 32.4623 39.8967 32.3309 40.2124C32.1996 40.5281 32.0071 40.8147 31.7644 41.0557C31.5218 41.2968 31.2341 41.4874 30.9174 41.6168C30.6009 41.7461 30.2619 41.8116 29.92 41.8094C29.4771 41.8098 29.0419 41.6952 28.6565 41.477C26.7692 44.6822 25.9939 48.4213 26.4512 52.1126C26.9085 55.8039 28.5728 59.2408 31.185 61.8886C33.7975 64.5365 37.2115 66.2469 40.8964 66.7539C44.5812 67.261 48.3304 66.5363 51.5608 64.6924C54.7911 62.8487 57.3218 59.989 58.7591 56.5583C60.1964 53.1277 60.4599 49.3181 59.5085 45.7224C58.5571 42.1265 56.4441 38.9458 53.4983 36.6748C50.5524 34.4038 46.9387 33.17 43.2191 33.165V33.1816ZM43.2191 55.4909C42.1432 55.4909 41.0916 55.1717 40.1972 54.5736C39.303 53.9755 38.6063 53.1255 38.1953 52.1314C37.7844 51.1371 37.6777 50.0433 37.8888 48.9883C38.0999 47.9334 38.6192 46.9647 39.3811 46.2051C40.143 45.4456 41.1132 44.9292 42.1688 44.7213C43.2244 44.5135 44.3179 44.6235 45.3109 45.0375C46.3038 45.4514 47.1518 46.1508 47.7471 47.047C48.3424 47.943 48.6584 48.9956 48.6551 50.0715C48.6551 50.7845 48.5143 51.4907 48.241 52.1493C47.9675 52.8078 47.5669 53.4061 47.0619 53.9095C46.557 54.413 45.9575 54.8118 45.2981 55.0831C44.6386 55.3546 43.9321 55.4931 43.2191 55.4909Z" fill="#C41957"/>
<path d="M84.9118 65.814L49.5028 4.48845C46.0451 -1.49615 40.3929 -1.49615 36.9518 4.48845L1.47637 65.814C-1.9814 71.782 0.844659 76.6861 7.7602 76.6861H78.6279C85.5435 76.7359 88.3695 71.8319 84.9118 65.814ZM43.219 68.557C39.9128 68.556 36.667 67.6701 33.8188 65.9909C30.9708 64.3117 28.624 61.9008 27.0227 59.0082C25.4211 56.1157 24.6232 52.8472 24.7118 49.5421C24.8004 46.2369 25.772 43.0159 27.526 40.2132C27.3917 39.9039 27.3237 39.5697 27.3265 39.2324C27.3265 38.5447 27.5998 37.885 28.0863 37.3986C28.5725 36.9122 29.2321 36.6391 29.9199 36.6391C30.0746 36.622 30.2307 36.622 30.3853 36.6391C32.5697 34.5388 35.2359 33.0066 38.1504 32.1769C41.0647 31.347 44.1383 31.2451 47.1012 31.88C50.0642 32.5149 52.8261 33.8672 55.1447 35.8182C57.4632 37.7692 59.2677 40.2593 60.3996 43.0702C61.5316 45.881 61.9565 48.9267 61.6371 51.9401C61.3178 54.9533 60.2638 57.8422 58.5677 60.3534C56.8717 62.8645 54.5854 64.921 51.9093 66.3427C49.2334 67.7642 46.2492 68.5074 43.219 68.5071V68.557Z" fill="#F80059"/>
</svg>
